#tb 0: 1/25
0,          0,          0,        1,   518400, 0x40c7e2d9
0,          1,          1,        1,   518400, 0xb16701a5
0,          2,          2,        1,   518400, 0x12c2f5b1
0,          3,          3,        1,   518400, 0x9832aecc
0,          4,          4,        1,   518400, 0x2b8bcdec
0,          5,          5,        1,   518400, 0x04448f3a
0,          6,          6,        1,   518400, 0xc7ac82d8
0,          7,          7,        1,   518400, 0xe746bb8a
0,          8,          8,        1,   518400, 0xc7ac92d3
0,          9,          9,        1,   518400, 0x38d89443
0,         10,         10,        1,   518400, 0xcb9fbe74
0,         11,         11,        1,   518400, 0x5543867d
0,         12,         12,        1,   518400, 0xaf1b147f
0,         13,         13,        1,   518400, 0xe5f07e40
0,         14,         14,        1,   518400, 0x66dc6734
0,         15,         15,        1,   518400, 0x0f9491be
0,         16,         16,        1,   518400, 0xbcdaacac
0,         17,         17,        1,   518400, 0xf4480ae7
0,         18,         18,        1,   518400, 0xa5cef4d5
0,         19,         19,        1,   518400, 0x9e4e4320
0,         20,         20,        1,   518400, 0x620c3212
0,         21,         21,        1,   518400, 0x4350df1d
0,         22,         22,        1,   518400, 0x6360ef84
0,         23,         23,        1,   518400, 0xc1866d03
0,         24,         24,        1,   518400, 0x38eb3b5b
0,         25,         25,        1,   518400, 0x00166df1
0,         26,         26,        1,   518400, 0x841ea87c
0,         27,         27,        1,   518400, 0x8b40f836
0,         28,         28,        1,   518400, 0x3b380ddf
0,         29,         29,        1,   518400, 0x275adf46
